<svg width="192" height="192" viewBox="0 0 192 192" fill="none" xmlns="http://www.w3.org/2000/svg">
  <rect width="192" height="192" rx="24" fill="#3b82f6"/>
  <path d="M48 96C48 69.49 69.49 48 96 48C122.51 48 144 69.49 144 96C144 122.51 122.51 144 96 144C69.49 144 48 122.51 48 96Z" fill="white"/>
  <path d="M96 72C87.16 72 80 79.16 80 88V104C80 112.84 87.16 120 96 120C104.84 120 112 112.84 112 104V88C112 79.16 104.84 72 96 72Z" fill="#3b82f6"/>
  <path d="M88 88C88 83.58 91.58 80 96 80C100.42 80 104 83.58 104 88V104C104 108.42 100.42 112 96 112C91.58 112 88 108.42 88 104V88Z" fill="white"/>
  <text x="96" y="165" text-anchor="middle" fill="white" font-family="Arial, sans-serif" font-size="16" font-weight="bold">SuaGrana</text>
</svg>